<svg width="15" height="14" viewBox="0 0 15 14" fill="none" xmlns="http://www.w3.org/2000/svg">
<path d="M1.94219 0.771506C1.75028 0.985402 1.75028 1.3322 1.94219 1.54609L12.4071 13.2099C12.599 13.4238 12.9102 13.4238 13.1021 13.2099C13.294 12.996 13.294 12.6492 13.1021 12.4353L2.63716 0.771506C2.44525 0.55761 2.1341 0.55761 1.94219 0.771506Z" fill="#6A6A6A"/>
<path d="M0.417908 6.92318C0.417908 6.45899 1.25227 5.09787 2.59583 3.87202L3.27713 4.66647C3.23687 4.70264 3.197 4.73904 3.15753 4.77564C2.56087 5.32895 2.08616 5.90152 1.76908 6.37026C1.60979 6.60574 1.50129 6.79878 1.43757 6.93629C1.42681 6.95951 1.41819 6.97927 1.41135 6.99573L1.41258 7.00154C1.42399 7.05445 1.44423 7.12545 1.47774 7.2145C1.54545 7.39445 1.65596 7.61815 1.81614 7.87423C2.13666 8.38665 2.61835 8.96855 3.22791 9.51662C4.45716 10.6219 6.08881 11.4875 7.78915 11.4875C8.2014 11.4875 8.60524 11.4338 8.99693 11.3361L9.77084 12.2386C9.14553 12.456 8.48121 12.5829 7.78915 12.5829C3.80859 12.5829 0.417908 8.56632 0.417908 6.92318Z" fill="#6A6A6A"/>
<path d="M5.00446 7.28832C5.00446 7.09861 5.01973 6.91287 5.04898 6.73256L8.16345 10.3642C8.04102 10.3826 7.91608 10.392 7.78915 10.392C6.25121 10.392 5.00446 9.00246 5.00446 7.28832Z" fill="#6A6A6A"/>
<path d="M7.11799 4.27535L10.4594 8.1717C10.5339 7.89172 10.5738 7.59522 10.5738 7.28832C10.5738 5.57418 9.3271 4.1846 7.78915 4.1846C7.55776 4.1846 7.33295 4.21606 7.11799 4.27535Z" fill="#6A6A6A"/>
<path d="M12.1564 9.47644C12.0523 9.57803 11.9449 9.67774 11.8345 9.77508L12.5162 10.57C13.9499 9.28078 14.8328 7.70731 14.8328 6.92318C14.8328 5.64518 11.6059 1.6286 7.62535 1.6286C6.80117 1.6286 6.00931 1.81644 5.27171 2.12245L6.02154 2.99681C6.54001 2.82358 7.07798 2.72403 7.62535 2.72403C9.32343 2.72403 10.9148 3.58747 12.1075 4.65176C12.6989 5.1795 13.1644 5.73261 13.4729 6.20306C13.6274 6.43875 13.7318 6.6374 13.7938 6.78733C13.8272 6.86817 13.8415 6.91834 13.8473 6.94115C13.8421 6.97426 13.8267 7.05149 13.7811 7.17827C13.7185 7.35241 13.6161 7.5726 13.4679 7.8267C13.1716 8.33484 12.7254 8.92135 12.1564 9.47644Z" fill="#6A6A6A"/>
</svg>
