<svg width="16" height="17" viewBox="0 0 16 17" fill="none" xmlns="http://www.w3.org/2000/svg">
<path fill-rule="evenodd" clip-rule="evenodd" d="M11.4699 3.81324C11.4699 5.82155 9.81566 8.3587 7.7751 8.3587C5.73455 8.3587 4.08035 5.82155 4.08035 3.81324C4.08035 1.80494 5.73455 0.17688 7.7751 0.17688C9.81566 0.17688 11.4699 1.80494 11.4699 3.81324ZM10.3614 3.81324C10.3614 4.55274 10.0441 5.46534 9.49809 6.18831C8.94385 6.92218 8.31167 7.26779 7.7751 7.26779C7.23854 7.26779 6.60636 6.92218 6.05212 6.18831C5.50611 5.46534 5.18877 4.55274 5.18877 3.81324C5.18877 2.40743 6.34671 1.26779 7.7751 1.26779C9.2035 1.26779 10.3614 2.40743 10.3614 3.81324Z" fill="#6A6A6A"/>
<path fill-rule="evenodd" clip-rule="evenodd" d="M0.38559 15.5818C0.38559 12.2955 3.09246 9.63142 6.43156 9.63142H9.21412C12.5005 9.63142 15.1646 12.2535 15.1646 15.4879C15.1646 15.8684 14.8512 16.1769 14.4646 16.1769H0.990187C0.656277 16.1769 0.38559 15.9105 0.38559 15.5818ZM6.43156 10.7223H9.21412C11.7508 10.7223 13.8319 12.6421 14.0392 15.086H1.51941C1.77179 12.6351 3.87472 10.7223 6.43156 10.7223Z" fill="#6A6A6A"/>
</svg>
